<svg xmlns="http://www.w3.org/2000/svg" viewBox="0 0 220 190" fill="none"><title>Python code flowing into an analysis table</title><defs><linearGradient id="blue" x1="45" y1="29" x2="174" y2="149" gradientUnits="userSpaceOnUse"><stop stop-color="#A2B3FF"/><stop offset=".48" stop-color="#647FF0"/><stop offset="1" stop-color="#364DAE"/></linearGradient><linearGradient id="gold" x1="88" y1="90" x2="174" y2="157" gradientUnits="userSpaceOnUse"><stop stop-color="#FFEC9B"/><stop offset=".6" stop-color="#F3CA43"/><stop offset="1" stop-color="#CA921D"/></linearGradient><filter id="shadow" x="-35%" y="-35%" width="180%" height="185%"><feDropShadow dx="0" dy="7" stdDeviation="4" flood-color="#090A17" flood-opacity=".23"/></filter></defs><ellipse cx="113" cy="172" rx="70" ry="7" fill="#071217" opacity=".23"/><g filter="url(#shadow)"><path d="M38 45L51 33H143L156 45V125L143 137H51L38 125Z" fill="#34419B"/><rect x="38" y="34" width="109" height="96" rx="13" fill="url(#blue)"/><rect x="47" y="44" width="91" height="76" rx="7" fill="#253458"/><circle cx="58" cy="55" r="3" fill="#F0D66E"/><circle cx="69" cy="55" r="3" fill="#A0D9AF"/><circle cx="80" cy="55" r="3" fill="#B3ABEA"/><path d="M60 72L53 79L60 86M76 72L83 79L76 86" stroke="#B5C9FF" stroke-width="3.5" stroke-linecap="round" stroke-linejoin="round"/><path d="M58 99H103M88 78H117M70 110H122" stroke="#7796D4" stroke-width="4" stroke-linecap="round"/><path d="M109 103L120 93H181L193 105V150L180 161H120L109 150Z" fill="#AF7F1E"/><rect x="109" y="93" width="74" height="60" rx="9" fill="url(#gold)"/><path d="M120 106H171M120 119H171M120 132H171M137 103V143M155 103V143" stroke="#B88625" stroke-width="2.5"/><rect x="119" y="104" width="15" height="10" rx="2" fill="#FFF1B4"/><rect x="141" y="122" width="11" height="8" rx="2" fill="#FFF1B4"/><path d="M70 137V146Q70 159 84 159H101" stroke="#ABA0EF" stroke-width="6" stroke-linecap="round"/><path d="M94 151L103 159L94 167" stroke="#C9BAFF" stroke-width="4" stroke-linecap="round" stroke-linejoin="round"/><path d="M156 62H166Q178 62 178 76V85" stroke="#93ADE9" stroke-width="5" stroke-linecap="round"/><path d="M171 78L178 87L185 78" stroke="#B2C7FA" stroke-width="3" stroke-linecap="round" stroke-linejoin="round"/></g></svg>
